<svg xmlns:dc="http://purl.org/dc/elements/1.1/" xmlns:cc="http://creativecommons.org/ns#" xmlns:rdf="http://www.w3.org/1999/02/22-rdf-syntax-ns#" xmlns:svg="http://www.w3.org/2000/svg" xmlns="http://www.w3.org/2000/svg" xmlns:sodipodi="http://sodipodi.sourceforge.net/DTD/sodipodi-0.dtd" xmlns:inkscape="http://www.inkscape.org/namespaces/inkscape" viewBox="0 0 144 144" version="1.1" id="svg5" sodipodi:docname="near_icon.svg" width="144" height="144" inkscape:version="0.92.5 (2060ec1f9f, 2020-04-08)"> <metadata id="metadata11">  <rdf:RDF> <cc:Work rdf:about=""> <dc:format>image/svg+xml</dc:format> <dc:type rdf:resource="http://purl.org/dc/dcmitype/StillImage" /> <dc:title></dc:title> </cc:Work>  </rdf:RDF> </metadata> <defs id="defs9">  <clipPath  clipPathUnits="userSpaceOnUse"  id="clipPath15"> <rect style="opacity:0.51599995;fill:#1a1a1a;stroke-width:0.83120549" id="rect17" width="151.32202" height="148.88136" x="68.338982" y="69.559319" />  </clipPath> </defs> <sodipodi:namedview pagecolor="#ffffff" bordercolor="#666666" borderopacity="1" objecttolerance="10" gridtolerance="10" guidetolerance="10" inkscape:pageopacity="0" inkscape:pageshadow="2" inkscape:window-width="1848" inkscape:window-height="1016" id="namedview7" showgrid="false" fit-margin-top="0" fit-margin-left="0" fit-margin-right="0" fit-margin-bottom="0" inkscape:zoom="0.81944444" inkscape:cx="72" inkscape:cy="72.500003" inkscape:window-x="72" inkscape:window-y="27" inkscape:window-maximized="1" inkscape:current-layer="svg5" /> <g id="Layer_1" data-name="Layer 1" clip-path="url(#clipPath15)" transform="translate(-72,-72.499999)">  <path  d="m 187.58,79.81 -30.1,44.69 a 3.2,3.2 0 0 0 4.75,4.2 L 191.86,103 a 1.2,1.2 0 0 1 2,0.91 v 80.46 a 1.2,1.2 0 0 1 -2.12,0.77 L 102.18,77.93 A 15.35,15.35 0 0 0 90.47,72.5 H 87.34 A 15.34,15.34 0 0 0 72,87.84 v 113.32 a 15.34,15.34 0 0 0 15.34,15.34 v 0 a 15.35,15.35 0 0 0 13.08,-7.31 l 30.1,-44.69 a 3.2,3.2 0 0 0 -4.75,-4.2 L 96.14,186 a 1.2,1.2 0 0 1 -2,-0.91 v -80.48 a 1.2,1.2 0 0 1 2.12,-0.77 l 89.55,107.23 a 15.35,15.35 0 0 0 11.71,5.43 h 3.13 A 15.34,15.34 0 0 0 216,201.16 V 87.84 A 15.34,15.34 0 0 0 200.66,72.5 v 0 a 15.35,15.35 0 0 0 -13.08,7.31 z"  id="path2"  inkscape:connector-curvature="0" /> </g> </svg>